<svg xmlns="http://www.w3.org/2000/svg" xmlns:xlink="http://www.w3.org/1999/xlink" viewBox="0 0 841 526.53"><defs><style>.cls-1{fill:none;}.cls-2{clip-path:url(#clip-path);}.cls-3{fill:#6c92ff;}</style><clipPath id="clip-path" transform="translate(0 0)"><rect class="cls-1" width="841" height="526.53"/></clipPath></defs><title>Realista</title><g id="Layer_2" data-name="Layer 2"><g id="Layer_1-2" data-name="Layer 1"><g id="Vector_Smart_Object" data-name="Vector Smart Object"><g class="cls-2"><g class="cls-2"><path class="cls-3" d="M337.93,290.24a3.55,3.55,0,0,1-1.62-.39L296,269.61a3.6,3.6,0,0,1-2-3.22V104.75a3.6,3.6,0,0,1,2-3.22L417.16,40.75a3.6,3.6,0,0,1,3.23,0l40.1,20.14a3.6,3.6,0,0,1,0,6.44l-119,59.89V286.63a3.61,3.61,0,0,1-3.6,3.61m-36.72-26.08,33.11,16.63V125a3.6,3.6,0,0,1,2-3.22L450.85,64.11,418.77,48,301.21,107Z" transform="translate(0 0)"/><path class="cls-3" d="M499.12,290.23a3.67,3.67,0,0,1-1.62-.38L376.73,229.21a3.61,3.61,0,0,1-2-3.22V185.83a3.59,3.59,0,0,1,5.21-3.22L500.73,243a3.61,3.61,0,0,1,2,3.23v40.37a3.61,3.61,0,0,1-3.6,3.6M382,223.76l113.56,57v-32.3L382,191.66Z" transform="translate(0 0)"/><polygon class="cls-3" points="257.21 84.46 418.78 3.6 579.81 84.46 539.53 104.61 418.78 43.97 297.61 104.75 257.21 84.46"/><path class="cls-3" d="M297.6,108.35A3.66,3.66,0,0,1,296,108l-40.4-20.29a3.6,3.6,0,0,1-2-3.22,3.64,3.64,0,0,1,2-3.22L417.16.38a3.63,3.63,0,0,1,3.23,0l161,80.86a3.61,3.61,0,0,1,0,6.45l-40.27,20.14a3.6,3.6,0,0,1-3.23,0L418.78,48,299.22,108a3.67,3.67,0,0,1-1.62.38M265.25,84.47l32.36,16.24,119.55-60a3.6,3.6,0,0,1,3.23,0l119.15,59.83,32.22-16.12-153-76.82Z" transform="translate(0 0)"/><polygon class="cls-3" points="378.35 185.83 378.35 145.29 499.12 84.46 539.53 104.61 378.35 185.83"/><path class="cls-3" d="M378.35,189.43a3.56,3.56,0,0,1-1.89-.53,3.62,3.62,0,0,1-1.71-3.07V145.29a3.61,3.61,0,0,1,2-3.22L497.5,81.24a3.6,3.6,0,0,1,3.23,0l40.41,20.14a3.61,3.61,0,0,1,0,6.45L380,189.05a3.54,3.54,0,0,1-1.62.38m3.6-41.92V180l149.54-75.36L499.13,88.49Z" transform="translate(0 0)"/><polygon class="cls-3" points="539.53 306.92 539.53 145.34 499.12 165.92 499.12 286.63 539.53 306.92"/><path class="cls-3" d="M539.53,310.52a3.66,3.66,0,0,1-1.61-.38L497.5,289.85a3.61,3.61,0,0,1-2-3.22V165.92a3.59,3.59,0,0,1,2-3.21l40.41-20.58a3.61,3.61,0,0,1,5.24,3.21V306.92a3.61,3.61,0,0,1-3.61,3.6m-36.8-26.12,33.2,16.67V151.22l-33.2,16.91Z" transform="translate(0 0)"/><path class="cls-3" d="M61.54,473.6q0,19.08-16.65,24l20.18,28H48.53L30.11,499.74H13v25.92H0V448.57H28.67q17.65,0,25.26,5.95t7.61,19.08M44.22,484.52q4-3.42,4-11t-4.09-10.37c-2.71-1.88-7.57-2.81-14.55-2.81H13v27.56H29.23q11,0,15-3.41" transform="translate(0 0)"/><polygon class="cls-3" points="178.55 448.57 178.55 460.81 137.41 460.81 137.41 481.21 174.35 481.21 174.35 492.79 137.41 492.79 137.41 513.41 179.87 513.41 179.87 525.66 124.4 525.66 124.4 448.57 178.55 448.57"/><path class="cls-3" d="M251.55,508.12l-7.71,17.53h-13.9l34-77.08h13.9l34,77.08h-13.9l-7.72-17.53Zm33.31-12-14-31.76-14,31.76Z" transform="translate(0 0)"/><polygon class="cls-3" points="366.57 525.66 366.57 448.57 379.59 448.57 379.59 513.3 414.77 513.3 414.77 525.66 366.57 525.66"/><rect class="cls-3" x="473.1" y="448.57" width="13.01" height="77.09"/><path class="cls-3" d="M575,458.72a17.12,17.12,0,0,0-9.32,2.31,7.73,7.73,0,0,0-3.64,7,8.13,8.13,0,0,0,3.64,7.17q3.64,2.48,15.49,5.35T599,488.6q6,5.17,6,15.27a20.25,20.25,0,0,1-7.61,16.38q-7.6,6.29-20,6.28-18.09,0-32.09-12.46l8.16-9.81q11.68,10.15,24.26,10.15,6.29,0,10-2.71a8.46,8.46,0,0,0,3.7-7.16,8,8,0,0,0-3.48-7c-2.32-1.66-6.3-3.16-12-4.52a107.44,107.44,0,0,1-12.9-3.75,29.14,29.14,0,0,1-7.83-4.47q-6.82-5.18-6.83-15.88t7.77-16.49q7.77-5.79,19.24-5.79a46,46,0,0,1,14.67,2.43A38.43,38.43,0,0,1,602.68,456l-6.95,9.81a26.22,26.22,0,0,0-9.26-5.07,35.52,35.52,0,0,0-11.52-2" transform="translate(0 0)"/><polygon class="cls-3" points="694.33 460.48 694.33 525.66 681.31 525.66 681.31 460.48 657.93 460.48 657.93 448.57 717.71 448.57 717.71 460.48 694.33 460.48"/><path class="cls-3" d="M780.79,508.12l-7.72,17.53h-13.9l34-77.08H807l34,77.08H827.1l-7.71-17.53Zm33.3-12-14-31.76-14,31.76Z" transform="translate(0 0)"/></g></g></g></g></g></svg>